<?xml version="1.0" standalone="no"?>
<!DOCTYPE svg PUBLIC "-//W3C//DTD SVG 20010904//EN"
 "http://www.w3.org/TR/2001/REC-SVG-20010904/DTD/svg10.dtd">
<svg version="1.0" xmlns="http://www.w3.org/2000/svg"
 width="1024.000000pt" height="1024.000000pt" viewBox="0 0 1024.000000 1024.000000"
 preserveAspectRatio="xMidYMid meet">
<metadata>
Created by potrace 1.14, written by Peter Selinger 2001-2017
</metadata>
<g transform="translate(0.000000,1024.000000) scale(0.100000,-0.100000)"
fill="#000000" stroke="none">
<path d="M1985 10228 c-910 -91 -1685 -759 -1914 -1651 -71 -274 -65 21 -69
-3412 -2 -2162 0 -3125 8 -3205 86 -913 726 -1683 1607 -1930 l106 -30 3421 0
3421 0 92 25 c510 136 976 474 1268 919 126 192 218 391 281 609 l34 119 0
3422 0 3423 -30 106 c-148 528 -501 996 -971 1288 -268 167 -621 286 -948 319
-131 13 -6174 12 -6306 -2z m6996 -2121 c82 -40 143 -98 179 -170 60 -123 61
-242 1 -352 -15 -27 -123 -170 -240 -318 l-214 -267 -3564 2 -3564 3 -135 335
c-134 335 -134 335 -134 417 0 99 24 170 80 241 42 54 119 107 183 127 35 11
681 13 3697 12 l3655 -2 56 -28z m-4107 -2319 c-8 -13 -73 -95 -605 -763 -140
-176 -300 -378 -356 -450 -56 -71 -184 -234 -285 -360 -101 -127 -279 -351
-397 -499 l-214 -269 -122 304 c-67 167 -271 673 -453 1124 -182 451 -340 844
-351 873 l-21 52 1406 0 c1121 0 1404 -3 1398 -12z m2870 0 c-10 -15 -693
-876 -1769 -2228 -186 -234 -1513 -1905 -1554 -1958 -68 -86 -84 -101 -138
-130 -150 -79 -318 -60 -439 50 -32 30 -67 75 -84 108 -31 62 -253 609 -253
625 0 10 90 125 638 815 146 184 332 418 413 520 81 102 259 327 397 500 138
173 291 366 340 429 198 251 533 673 868 1094 l150 187 719 0 c554 0 717 -3
712 -12z"/>
</g>
</svg>
